G75*
%MOIN*%
%OFA0B0*%
%FSLAX24Y24*%
%IPPOS*%
%LPD*%
%AMOC8*
5,1,8,0,0,1.08239X$1,22.5*
%
%ADD10C,0.0600*%
%ADD11C,0.0600*%
%ADD12OC8,0.0600*%
%ADD13OC8,0.0540*%
%ADD14OC8,0.0480*%
%ADD15C,0.0200*%
%ADD16C,0.0270*%
%ADD17C,0.0080*%
D10*
X006650Y001414D02*
X006650Y002014D01*
X007650Y002014D02*
X007650Y001414D01*
X008650Y001414D02*
X008650Y002014D01*
X009650Y002014D02*
X009650Y001414D01*
X007600Y014464D02*
X007600Y015064D01*
X006600Y015064D02*
X006600Y014464D01*
X005600Y014464D02*
X005600Y015064D01*
X004600Y015064D02*
X004600Y014464D01*
D11*
X005650Y000714D03*
D12*
X005650Y001714D03*
X005650Y002714D03*
X004650Y002714D03*
X004650Y001714D03*
X004650Y000714D03*
D13*
X002650Y000714D03*
X002650Y001714D03*
X002650Y002714D03*
X002650Y003714D03*
X002650Y004714D03*
X002650Y005714D03*
X002650Y006714D03*
X002650Y007714D03*
X002650Y008714D03*
X002650Y009714D03*
X001650Y009714D03*
X001650Y008714D03*
X001650Y007714D03*
X001650Y006714D03*
X001650Y005714D03*
X001650Y004714D03*
X001650Y003714D03*
X001650Y002714D03*
X001650Y001714D03*
X001650Y000714D03*
D14*
X007650Y007714D03*
X008650Y008714D03*
X007650Y009714D03*
D15*
X000650Y010164D02*
X000650Y000464D01*
X001292Y000464D01*
X001220Y000536D01*
X001220Y000892D01*
X001472Y001144D01*
X001797Y001144D01*
X002067Y001414D01*
X002342Y001414D01*
X002220Y001536D01*
X002220Y001892D01*
X002242Y001914D01*
X002133Y001914D01*
X002080Y001862D01*
X002080Y001536D01*
X001828Y001284D01*
X001472Y001284D01*
X001220Y001536D01*
X001220Y001892D01*
X001472Y002144D01*
X001797Y002144D01*
X001967Y002314D01*
X002442Y002314D01*
X002220Y002536D01*
X002220Y002892D01*
X002472Y003144D01*
X002828Y003144D01*
X003080Y002892D01*
X003080Y002536D01*
X002858Y002314D01*
X002883Y002314D01*
X003000Y002197D01*
X003283Y001914D01*
X003533Y001914D01*
X003500Y001947D01*
X003455Y002056D01*
X003455Y002173D01*
X003500Y002281D01*
X003583Y002364D01*
X003691Y002409D01*
X003809Y002409D01*
X003917Y002364D01*
X003967Y002314D01*
X004343Y002314D01*
X004150Y002507D01*
X004150Y002714D01*
X004650Y002714D01*
X004650Y002714D01*
X004650Y002714D01*
X005150Y002714D01*
X005150Y002507D01*
X005052Y002409D01*
X005059Y002409D01*
X005167Y002364D01*
X005250Y002281D01*
X005295Y002173D01*
X005295Y002056D01*
X005263Y001978D01*
X005459Y002174D01*
X005841Y002174D01*
X006040Y001975D01*
X006040Y002454D01*
X005841Y002254D01*
X005459Y002254D01*
X005190Y002524D01*
X005190Y002892D01*
X003067Y005014D01*
X002958Y005014D01*
X003080Y004892D01*
X003080Y004536D01*
X002828Y004284D01*
X002472Y004284D01*
X002220Y004536D01*
X002220Y004892D01*
X002342Y005014D01*
X002117Y005014D01*
X002067Y005064D01*
X001950Y005182D01*
X001950Y005406D01*
X001828Y005284D01*
X001472Y005284D01*
X001220Y005536D01*
X001220Y005892D01*
X001472Y006144D01*
X001828Y006144D01*
X001950Y006022D01*
X001950Y006132D01*
X001797Y006284D01*
X001472Y006284D01*
X001220Y006536D01*
X001220Y006892D01*
X001472Y007144D01*
X001828Y007144D01*
X001882Y007090D01*
X001855Y007156D01*
X001855Y007273D01*
X001882Y007338D01*
X001828Y007284D01*
X001472Y007284D01*
X001220Y007536D01*
X001220Y007892D01*
X001472Y008144D01*
X001828Y008144D01*
X002080Y007892D01*
X002080Y007536D01*
X002026Y007482D01*
X002091Y007509D01*
X002209Y007509D01*
X002274Y007482D01*
X002220Y007536D01*
X002220Y007892D01*
X002351Y008024D01*
X002303Y008044D01*
X002053Y008294D01*
X001980Y008367D01*
X001959Y008416D01*
X001828Y008284D01*
X001472Y008284D01*
X001220Y008536D01*
X001220Y008892D01*
X001472Y009144D01*
X001828Y009144D01*
X001832Y009140D01*
X001805Y009206D01*
X001805Y009284D01*
X001472Y009284D01*
X001220Y009536D01*
X001220Y009892D01*
X001472Y010144D01*
X001828Y010144D01*
X002080Y009892D01*
X002080Y009559D01*
X002159Y009559D01*
X002224Y009532D01*
X002220Y009536D01*
X002220Y009892D01*
X002472Y010144D01*
X002828Y010144D01*
X003080Y009892D01*
X003080Y009536D01*
X002828Y009284D01*
X002482Y009284D01*
X002510Y009216D01*
X002510Y009184D01*
X002650Y009184D01*
X002650Y008714D01*
X002650Y008714D01*
X003120Y008714D01*
X003120Y008520D01*
X002991Y008391D01*
X003208Y008174D01*
X003602Y008174D01*
X003697Y008135D01*
X003770Y008062D01*
X004220Y007612D01*
X004260Y007516D01*
X004260Y007272D01*
X006133Y005399D01*
X006217Y005364D01*
X006300Y005281D01*
X006345Y005173D01*
X006345Y005056D01*
X006300Y004947D01*
X006217Y004864D01*
X006109Y004819D01*
X005991Y004819D01*
X005883Y004864D01*
X005800Y004947D01*
X005765Y005032D01*
X005250Y005547D01*
X005250Y005047D01*
X007533Y002764D01*
X008083Y002764D01*
X008233Y002614D01*
X009083Y002614D01*
X009341Y002356D01*
X009389Y002404D01*
X009558Y002474D01*
X009741Y002474D01*
X009911Y002404D01*
X010040Y002275D01*
X010110Y002106D01*
X010110Y001323D01*
X010040Y001154D01*
X009911Y001024D01*
X009741Y000954D01*
X009558Y000954D01*
X009389Y001024D01*
X009260Y001154D01*
X009190Y001323D01*
X009190Y001942D01*
X009110Y002022D01*
X009110Y001323D01*
X009040Y001154D01*
X008911Y001024D01*
X008741Y000954D01*
X008558Y000954D01*
X008389Y001024D01*
X008260Y001154D01*
X008190Y001323D01*
X008190Y001892D01*
X008150Y001932D01*
X008150Y001714D01*
X007650Y001714D01*
X007650Y000914D01*
X007650Y001714D01*
X007650Y001714D01*
X007650Y001714D01*
X007150Y001714D01*
X007150Y001375D01*
X007162Y001297D01*
X007187Y001222D01*
X007222Y001152D01*
X007269Y001089D01*
X007324Y001033D01*
X007388Y000987D01*
X007458Y000951D01*
X007533Y000927D01*
X007611Y000914D01*
X007650Y000914D01*
X007689Y000914D01*
X007767Y000927D01*
X007842Y000951D01*
X007912Y000987D01*
X007976Y001033D01*
X008031Y001089D01*
X008078Y001152D01*
X008113Y001222D01*
X008138Y001297D01*
X008150Y001375D01*
X008150Y001714D01*
X007650Y001714D01*
X007650Y001714D01*
X007150Y001714D01*
X007150Y002054D01*
X007162Y002131D01*
X007187Y002206D01*
X007222Y002276D01*
X007236Y002295D01*
X007200Y002332D01*
X006560Y002972D01*
X006560Y002474D01*
X006741Y002474D01*
X006911Y002404D01*
X007040Y002275D01*
X007110Y002106D01*
X007110Y001323D01*
X007040Y001154D01*
X006911Y001024D01*
X006741Y000954D01*
X006558Y000954D01*
X006389Y001024D01*
X006260Y001154D01*
X006230Y001227D01*
X006009Y001006D01*
X006040Y000975D01*
X006110Y000806D01*
X006110Y000623D01*
X006044Y000464D01*
X010650Y000464D01*
X010650Y015964D01*
X003550Y015964D01*
X003550Y010365D01*
X003512Y010273D01*
X003442Y010202D01*
X003350Y010164D01*
X000650Y010164D01*
X000650Y010139D02*
X001467Y010139D01*
X001268Y009941D02*
X000650Y009941D01*
X000650Y009742D02*
X001220Y009742D01*
X001220Y009544D02*
X000650Y009544D01*
X000650Y009345D02*
X001411Y009345D01*
X001276Y008948D02*
X000650Y008948D01*
X000650Y008750D02*
X001220Y008750D01*
X001220Y008551D02*
X000650Y008551D01*
X000650Y008353D02*
X001403Y008353D01*
X001283Y007956D02*
X000650Y007956D01*
X000650Y008154D02*
X002192Y008154D01*
X002283Y007956D02*
X002017Y007956D01*
X002080Y007757D02*
X002220Y007757D01*
X002220Y007559D02*
X002080Y007559D01*
X001855Y007162D02*
X000650Y007162D01*
X000650Y007360D02*
X001396Y007360D01*
X001220Y007559D02*
X000650Y007559D01*
X000650Y007757D02*
X001220Y007757D01*
X001291Y006963D02*
X000650Y006963D01*
X000650Y006765D02*
X001220Y006765D01*
X001220Y006566D02*
X000650Y006566D01*
X000650Y006368D02*
X001388Y006368D01*
X001298Y005971D02*
X000650Y005971D01*
X000650Y006169D02*
X001912Y006169D01*
X001919Y005375D02*
X001950Y005375D01*
X001955Y005177D02*
X000650Y005177D01*
X000650Y005375D02*
X001381Y005375D01*
X001472Y005144D02*
X001220Y004892D01*
X001220Y004536D01*
X001472Y004284D01*
X001828Y004284D01*
X002080Y004536D01*
X002080Y004892D01*
X001828Y005144D01*
X001472Y005144D01*
X001306Y004978D02*
X000650Y004978D01*
X000650Y004780D02*
X001220Y004780D01*
X001220Y004581D02*
X000650Y004581D01*
X000650Y004383D02*
X001373Y004383D01*
X001472Y004144D02*
X001220Y003892D01*
X001220Y003536D01*
X001472Y003284D01*
X001828Y003284D01*
X002080Y003536D01*
X002080Y003892D01*
X001828Y004144D01*
X001472Y004144D01*
X001313Y003986D02*
X000650Y003986D01*
X000650Y004184D02*
X003897Y004184D01*
X004096Y003986D02*
X002987Y003986D01*
X003080Y003892D02*
X002828Y004144D01*
X002472Y004144D01*
X002220Y003892D01*
X002220Y003536D01*
X002472Y003284D01*
X002828Y003284D01*
X003080Y003536D01*
X003080Y003892D01*
X003080Y003787D02*
X004294Y003787D01*
X004493Y003589D02*
X003080Y003589D01*
X002934Y003390D02*
X004691Y003390D01*
X004650Y003214D02*
X004650Y002714D01*
X004150Y002714D01*
X004150Y002921D01*
X004443Y003214D01*
X004650Y003214D01*
X004650Y002714D01*
X005150Y002714D01*
X005150Y002921D01*
X004857Y003214D01*
X004650Y003214D01*
X004650Y003192D02*
X004650Y003192D01*
X004650Y002993D02*
X004650Y002993D01*
X004650Y002795D02*
X004650Y002795D01*
X004650Y002714D02*
X004650Y002714D01*
X004259Y002398D02*
X003836Y002398D01*
X003664Y002398D02*
X002942Y002398D01*
X002998Y002199D02*
X003466Y002199D01*
X003478Y002001D02*
X003196Y002001D01*
X003080Y002596D02*
X004150Y002596D01*
X004150Y002795D02*
X003080Y002795D01*
X002979Y002993D02*
X004222Y002993D01*
X004420Y003192D02*
X000650Y003192D01*
X000650Y003390D02*
X001366Y003390D01*
X001472Y003144D02*
X001220Y002892D01*
X001220Y002536D01*
X001472Y002284D01*
X001828Y002284D01*
X002080Y002536D01*
X002080Y002892D01*
X001828Y003144D01*
X001472Y003144D01*
X001321Y002993D02*
X000650Y002993D01*
X000650Y002795D02*
X001220Y002795D01*
X001220Y002596D02*
X000650Y002596D01*
X000650Y002398D02*
X001358Y002398D01*
X001328Y002001D02*
X000650Y002001D01*
X000650Y002199D02*
X001852Y002199D01*
X001942Y002398D02*
X002358Y002398D01*
X002220Y002596D02*
X002080Y002596D01*
X002080Y002795D02*
X002220Y002795D01*
X002321Y002993D02*
X001979Y002993D01*
X001934Y003390D02*
X002366Y003390D01*
X002220Y003589D02*
X002080Y003589D01*
X002080Y003787D02*
X002220Y003787D01*
X002313Y003986D02*
X001987Y003986D01*
X001927Y004383D02*
X002373Y004383D01*
X002220Y004581D02*
X002080Y004581D01*
X002080Y004780D02*
X002220Y004780D01*
X002306Y004978D02*
X001994Y004978D01*
X001220Y005574D02*
X000650Y005574D01*
X000650Y005772D02*
X001220Y005772D01*
X001220Y003787D02*
X000650Y003787D01*
X000650Y003589D02*
X001220Y003589D01*
X001220Y001802D02*
X000650Y001802D01*
X000650Y001604D02*
X001220Y001604D01*
X001351Y001405D02*
X000650Y001405D01*
X000650Y001207D02*
X001860Y001207D01*
X001949Y001405D02*
X002058Y001405D01*
X002080Y001604D02*
X002220Y001604D01*
X002220Y001802D02*
X002080Y001802D01*
X001336Y001008D02*
X000650Y001008D01*
X000650Y000810D02*
X001220Y000810D01*
X001220Y000611D02*
X000650Y000611D01*
X002927Y004383D02*
X003699Y004383D01*
X003500Y004581D02*
X003080Y004581D01*
X003080Y004780D02*
X003302Y004780D01*
X003103Y004978D02*
X002994Y004978D01*
X004000Y007164D02*
X004000Y007464D01*
X003550Y007914D01*
X003100Y007914D01*
X002750Y008264D01*
X002450Y008264D01*
X002200Y008514D01*
X002200Y008914D01*
X002250Y008964D01*
X002250Y009164D01*
X002150Y009264D01*
X002100Y009264D01*
X001829Y009147D02*
X000650Y009147D01*
X001833Y010139D02*
X002467Y010139D01*
X002268Y009941D02*
X002032Y009941D01*
X002080Y009742D02*
X002220Y009742D01*
X002220Y009544D02*
X002196Y009544D01*
X002650Y009184D02*
X002650Y008714D01*
X003600Y009664D01*
X005500Y007764D01*
X005450Y007757D02*
X007250Y007757D01*
X007250Y007880D02*
X007250Y007549D01*
X007334Y007464D01*
X005733Y007464D01*
X005450Y007747D01*
X005450Y007797D01*
X005333Y007914D01*
X004933Y008314D01*
X004367Y008314D01*
X004317Y008364D01*
X004209Y008409D01*
X004091Y008409D01*
X003983Y008364D01*
X003900Y008281D01*
X003855Y008173D01*
X003855Y008056D01*
X003900Y007947D01*
X003983Y007864D01*
X004091Y007819D01*
X004209Y007819D01*
X004317Y007864D01*
X004367Y007914D01*
X004767Y007914D01*
X005050Y007632D01*
X005050Y007582D01*
X005450Y007182D01*
X005567Y007064D01*
X008783Y007064D01*
X009288Y007569D01*
X009359Y007569D01*
X009467Y007614D01*
X009550Y007697D01*
X009595Y007806D01*
X009595Y007923D01*
X009550Y008031D01*
X009467Y008114D01*
X009359Y008159D01*
X009241Y008159D01*
X009133Y008114D01*
X009050Y008031D01*
X009005Y007923D01*
X009005Y007852D01*
X008617Y007464D01*
X007966Y007464D01*
X008050Y007549D01*
X008050Y007880D01*
X007816Y008114D01*
X007484Y008114D01*
X007250Y007880D01*
X007326Y007956D02*
X005291Y007956D01*
X005093Y008154D02*
X006376Y008154D01*
X006355Y008206D02*
X006400Y008097D01*
X006483Y008014D01*
X006591Y007969D01*
X006709Y007969D01*
X006817Y008014D01*
X006900Y008097D01*
X006945Y008206D01*
X006945Y008323D01*
X006900Y008431D01*
X006817Y008514D01*
X006709Y008559D01*
X006638Y008559D01*
X005545Y009652D01*
X005545Y009723D01*
X005500Y009831D01*
X005417Y009914D01*
X005309Y009959D01*
X005230Y009959D01*
X005200Y010031D01*
X005150Y010082D01*
X005150Y010232D01*
X006283Y011364D01*
X006400Y011482D01*
X006400Y014049D01*
X006508Y014004D01*
X006691Y014004D01*
X006861Y014074D01*
X006990Y014204D01*
X007060Y014373D01*
X007060Y015156D01*
X006990Y015325D01*
X006861Y015454D01*
X006691Y015524D01*
X006508Y015524D01*
X006339Y015454D01*
X006210Y015325D01*
X006140Y015156D01*
X006140Y014587D01*
X006100Y014547D01*
X006100Y014764D01*
X005600Y014764D01*
X005600Y013964D01*
X005600Y014764D01*
X005600Y014764D01*
X005100Y014764D01*
X005100Y014425D01*
X005112Y014347D01*
X005137Y014272D01*
X005172Y014202D01*
X005219Y014139D01*
X005274Y014083D01*
X005338Y014037D01*
X005408Y014001D01*
X005483Y013977D01*
X005561Y013964D01*
X005600Y013964D01*
X005639Y013964D01*
X005717Y013977D01*
X005792Y014001D01*
X005862Y014037D01*
X005926Y014083D01*
X005981Y014139D01*
X006000Y014164D01*
X006000Y011647D01*
X004750Y010397D01*
X004750Y010082D01*
X004700Y010031D01*
X004655Y009923D01*
X004655Y009806D01*
X004700Y009697D01*
X004783Y009614D01*
X004891Y009569D01*
X004970Y009569D01*
X005000Y009497D01*
X005083Y009414D01*
X005191Y009369D01*
X005262Y009369D01*
X006355Y008277D01*
X006355Y008206D01*
X006279Y008353D02*
X004329Y008353D01*
X004075Y007757D02*
X004924Y007757D01*
X005073Y007559D02*
X004242Y007559D01*
X004260Y007360D02*
X005271Y007360D01*
X005470Y007162D02*
X004370Y007162D01*
X004569Y006963D02*
X010650Y006963D01*
X010650Y006765D02*
X004767Y006765D01*
X004966Y006566D02*
X010650Y006566D01*
X010650Y006368D02*
X005164Y006368D01*
X005363Y006169D02*
X010650Y006169D01*
X010650Y005971D02*
X005561Y005971D01*
X005760Y005772D02*
X010650Y005772D01*
X010650Y005574D02*
X005958Y005574D01*
X006191Y005375D02*
X010650Y005375D01*
X010650Y005177D02*
X006343Y005177D01*
X006313Y004978D02*
X007154Y004978D01*
X007174Y004998D02*
X006937Y004761D01*
X006809Y004452D01*
X006809Y004118D01*
X006937Y003809D01*
X007174Y003573D01*
X007483Y003445D01*
X007817Y003445D01*
X008126Y003573D01*
X008363Y003809D01*
X008491Y004118D01*
X008491Y004452D01*
X008363Y004761D01*
X008126Y004998D01*
X007817Y005126D01*
X007483Y005126D01*
X007174Y004998D01*
X006956Y004780D02*
X005517Y004780D01*
X005319Y004978D02*
X005787Y004978D01*
X005620Y005177D02*
X005250Y005177D01*
X005250Y005375D02*
X005421Y005375D01*
X005716Y004581D02*
X006863Y004581D01*
X006809Y004383D02*
X005914Y004383D01*
X006113Y004184D02*
X006809Y004184D01*
X006864Y003986D02*
X006311Y003986D01*
X006510Y003787D02*
X006959Y003787D01*
X007158Y003589D02*
X006708Y003589D01*
X006907Y003390D02*
X010650Y003390D01*
X010650Y003192D02*
X007105Y003192D01*
X007304Y002993D02*
X010650Y002993D01*
X010650Y002795D02*
X007502Y002795D01*
X007134Y002398D02*
X006917Y002398D01*
X006935Y002596D02*
X006560Y002596D01*
X006560Y002795D02*
X006737Y002795D01*
X006300Y003214D02*
X006300Y001764D01*
X006350Y001714D01*
X006650Y001714D01*
X006350Y001714D02*
X005850Y001214D01*
X005450Y001214D01*
X005150Y000914D01*
X005272Y002001D02*
X005286Y002001D01*
X005284Y002199D02*
X006040Y002199D01*
X006040Y002001D02*
X006014Y002001D01*
X006040Y002398D02*
X005984Y002398D01*
X006300Y003214D02*
X004650Y004864D01*
X004650Y005664D01*
X006050Y005114D02*
X004000Y007164D01*
X003896Y007956D02*
X003876Y007956D01*
X003855Y008154D02*
X003650Y008154D01*
X003971Y008353D02*
X003029Y008353D01*
X003120Y008551D02*
X006080Y008551D01*
X005882Y008750D02*
X003120Y008750D01*
X003120Y008714D02*
X003120Y008909D01*
X002845Y009184D01*
X002650Y009184D01*
X002650Y009147D02*
X002650Y009147D01*
X002650Y008948D02*
X002650Y008948D01*
X002650Y008750D02*
X002650Y008750D01*
X002650Y008714D02*
X002650Y008714D01*
X003120Y008714D01*
X003081Y008948D02*
X005683Y008948D01*
X005485Y009147D02*
X002882Y009147D01*
X002889Y009345D02*
X005286Y009345D01*
X004981Y009544D02*
X003080Y009544D01*
X003080Y009742D02*
X004681Y009742D01*
X004662Y009941D02*
X003032Y009941D01*
X002833Y010139D02*
X004750Y010139D01*
X004750Y010338D02*
X003539Y010338D01*
X003550Y010536D02*
X004889Y010536D01*
X005088Y010735D02*
X003550Y010735D01*
X003550Y010933D02*
X005286Y010933D01*
X005250Y010914D02*
X004850Y010914D01*
X003600Y009664D01*
X003550Y011132D02*
X005485Y011132D01*
X005683Y011330D02*
X003550Y011330D01*
X003550Y011529D02*
X005882Y011529D01*
X006000Y011664D02*
X005250Y010914D01*
X005455Y010536D02*
X010650Y010536D01*
X010650Y010735D02*
X005653Y010735D01*
X005852Y010933D02*
X010650Y010933D01*
X010650Y011132D02*
X006050Y011132D01*
X006249Y011330D02*
X010650Y011330D01*
X010650Y011529D02*
X006400Y011529D01*
X006400Y011727D02*
X010650Y011727D01*
X010650Y011926D02*
X006400Y011926D01*
X006400Y012124D02*
X010650Y012124D01*
X010650Y012323D02*
X007865Y012323D01*
X007817Y012303D02*
X008126Y012431D01*
X008363Y012667D01*
X008491Y012976D01*
X008491Y013311D01*
X008363Y013620D01*
X008126Y013856D01*
X007817Y013984D01*
X007483Y013984D01*
X007174Y013856D01*
X006937Y013620D01*
X006809Y013311D01*
X006809Y012976D01*
X006937Y012667D01*
X007174Y012431D01*
X007483Y012303D01*
X007817Y012303D01*
X007435Y012323D02*
X006400Y012323D01*
X006400Y012521D02*
X007083Y012521D01*
X006916Y012720D02*
X006400Y012720D01*
X006400Y012918D02*
X006833Y012918D01*
X006809Y013117D02*
X006400Y013117D01*
X006400Y013315D02*
X006811Y013315D01*
X006894Y013514D02*
X006400Y013514D01*
X006400Y013712D02*
X007030Y013712D01*
X007306Y013911D02*
X006400Y013911D01*
X006000Y013911D02*
X003550Y013911D01*
X003550Y014109D02*
X004304Y014109D01*
X004339Y014074D02*
X004210Y014204D01*
X004140Y014373D01*
X004140Y015156D01*
X004210Y015325D01*
X004339Y015454D01*
X004508Y015524D01*
X004691Y015524D01*
X004861Y015454D01*
X004990Y015325D01*
X005060Y015156D01*
X005060Y014373D01*
X004990Y014204D01*
X004861Y014074D01*
X004691Y014004D01*
X004508Y014004D01*
X004339Y014074D01*
X004167Y014308D02*
X003550Y014308D01*
X003550Y014506D02*
X004140Y014506D01*
X004140Y014705D02*
X003550Y014705D01*
X003550Y014903D02*
X004140Y014903D01*
X004140Y015102D02*
X003550Y015102D01*
X003550Y015300D02*
X004200Y015300D01*
X004447Y015499D02*
X003550Y015499D01*
X003550Y015697D02*
X010650Y015697D01*
X010650Y015499D02*
X007753Y015499D01*
X007691Y015524D02*
X007508Y015524D01*
X007339Y015454D01*
X007210Y015325D01*
X007140Y015156D01*
X007140Y014373D01*
X007210Y014204D01*
X007339Y014074D01*
X007508Y014004D01*
X007691Y014004D01*
X007861Y014074D01*
X007990Y014204D01*
X008060Y014373D01*
X008060Y015156D01*
X007990Y015325D01*
X007861Y015454D01*
X007691Y015524D01*
X007447Y015499D02*
X006753Y015499D01*
X006447Y015499D02*
X005849Y015499D01*
X005862Y015492D02*
X005792Y015528D01*
X005717Y015552D01*
X005639Y015564D01*
X005600Y015564D01*
X005561Y015564D01*
X005483Y015552D01*
X005408Y015528D01*
X005338Y015492D01*
X005274Y015446D01*
X005219Y015390D01*
X005172Y015326D01*
X005137Y015256D01*
X005112Y015181D01*
X005100Y015104D01*
X005100Y014764D01*
X005600Y014764D01*
X005600Y014764D01*
X005600Y014764D01*
X006100Y014764D01*
X006100Y015104D01*
X006088Y015181D01*
X006063Y015256D01*
X006028Y015326D01*
X005981Y015390D01*
X005926Y015446D01*
X005862Y015492D01*
X005600Y015499D02*
X005600Y015499D01*
X005600Y015564D02*
X005600Y014764D01*
X005600Y014764D01*
X005600Y015564D01*
X005600Y015300D02*
X005600Y015300D01*
X005600Y015102D02*
X005600Y015102D01*
X005600Y014903D02*
X005600Y014903D01*
X005600Y014705D02*
X005600Y014705D01*
X005600Y014506D02*
X005600Y014506D01*
X005600Y014308D02*
X005600Y014308D01*
X005600Y014109D02*
X005600Y014109D01*
X005952Y014109D02*
X006000Y014109D01*
X006000Y013712D02*
X003550Y013712D01*
X003550Y013514D02*
X006000Y013514D01*
X005950Y013364D02*
X006000Y013314D01*
X006000Y011664D01*
X006000Y011727D02*
X003550Y011727D01*
X003550Y011926D02*
X006000Y011926D01*
X006000Y012124D02*
X003550Y012124D01*
X003550Y012323D02*
X006000Y012323D01*
X006000Y012521D02*
X003550Y012521D01*
X003550Y012720D02*
X006000Y012720D01*
X006000Y012918D02*
X003550Y012918D01*
X003550Y013117D02*
X006000Y013117D01*
X006000Y013315D02*
X003550Y013315D01*
X004896Y014109D02*
X005248Y014109D01*
X005125Y014308D02*
X005033Y014308D01*
X005060Y014506D02*
X005100Y014506D01*
X005100Y014705D02*
X005060Y014705D01*
X005060Y014903D02*
X005100Y014903D01*
X005100Y015102D02*
X005060Y015102D01*
X005000Y015300D02*
X005159Y015300D01*
X005351Y015499D02*
X004753Y015499D01*
X003550Y015896D02*
X010650Y015896D01*
X010650Y015300D02*
X008000Y015300D01*
X008060Y015102D02*
X010650Y015102D01*
X010650Y014903D02*
X008060Y014903D01*
X008060Y014705D02*
X010650Y014705D01*
X010650Y014506D02*
X008060Y014506D01*
X008033Y014308D02*
X010650Y014308D01*
X010650Y014109D02*
X007896Y014109D01*
X007994Y013911D02*
X010650Y013911D01*
X010650Y013712D02*
X008270Y013712D01*
X008406Y013514D02*
X010650Y013514D01*
X010650Y013315D02*
X008489Y013315D01*
X008491Y013117D02*
X010650Y013117D01*
X010650Y012918D02*
X008467Y012918D01*
X008384Y012720D02*
X010650Y012720D01*
X010650Y012521D02*
X008217Y012521D01*
X007304Y014109D02*
X006896Y014109D01*
X007033Y014308D02*
X007167Y014308D01*
X007140Y014506D02*
X007060Y014506D01*
X007060Y014705D02*
X007140Y014705D01*
X007140Y014903D02*
X007060Y014903D01*
X007060Y015102D02*
X007140Y015102D01*
X007200Y015300D02*
X007000Y015300D01*
X006200Y015300D02*
X006041Y015300D01*
X006100Y015102D02*
X006140Y015102D01*
X006140Y014903D02*
X006100Y014903D01*
X006100Y014705D02*
X006140Y014705D01*
X005256Y010338D02*
X010650Y010338D01*
X010650Y010139D02*
X007847Y010139D01*
X007832Y010154D02*
X007650Y010154D01*
X007650Y009714D01*
X007650Y009274D01*
X007832Y009274D01*
X008090Y009532D01*
X008090Y009714D01*
X007650Y009714D01*
X007650Y009714D01*
X007650Y009274D01*
X007468Y009274D01*
X007210Y009532D01*
X007210Y009714D01*
X007650Y009714D01*
X007650Y009714D01*
X007650Y009714D01*
X008090Y009714D01*
X008090Y009897D01*
X007832Y010154D01*
X007650Y010154D02*
X007650Y009714D01*
X007210Y009714D01*
X007210Y009897D01*
X007468Y010154D01*
X007650Y010154D01*
X007650Y010139D02*
X007650Y010139D01*
X007453Y010139D02*
X005150Y010139D01*
X005353Y009941D02*
X007254Y009941D01*
X007210Y009742D02*
X005537Y009742D01*
X005653Y009544D02*
X007210Y009544D01*
X007397Y009345D02*
X005852Y009345D01*
X006050Y009147D02*
X010650Y009147D01*
X010650Y009345D02*
X007903Y009345D01*
X008090Y009544D02*
X010650Y009544D01*
X010650Y009742D02*
X008090Y009742D01*
X008046Y009941D02*
X010650Y009941D01*
X010650Y008948D02*
X008982Y008948D01*
X009050Y008880D02*
X008816Y009114D01*
X008484Y009114D01*
X008250Y008880D01*
X008250Y008549D01*
X008484Y008314D01*
X008816Y008314D01*
X009050Y008549D01*
X009050Y008880D01*
X009050Y008750D02*
X010650Y008750D01*
X010650Y008551D02*
X009050Y008551D01*
X008854Y008353D02*
X010650Y008353D01*
X010650Y008154D02*
X009371Y008154D01*
X009229Y008154D02*
X006924Y008154D01*
X006933Y008353D02*
X008446Y008353D01*
X008250Y008551D02*
X006728Y008551D01*
X006447Y008750D02*
X008250Y008750D01*
X008318Y008948D02*
X006249Y008948D01*
X005638Y007559D02*
X007250Y007559D01*
X007974Y007956D02*
X009019Y007956D01*
X008910Y007757D02*
X008050Y007757D01*
X008050Y007559D02*
X008712Y007559D01*
X009079Y007360D02*
X010650Y007360D01*
X010650Y007162D02*
X008880Y007162D01*
X009277Y007559D02*
X010650Y007559D01*
X010650Y007757D02*
X009575Y007757D01*
X009581Y007956D02*
X010650Y007956D01*
X010650Y004978D02*
X008146Y004978D01*
X008344Y004780D02*
X010650Y004780D01*
X010650Y004581D02*
X008437Y004581D01*
X008491Y004383D02*
X010650Y004383D01*
X010650Y004184D02*
X008491Y004184D01*
X008436Y003986D02*
X010650Y003986D01*
X010650Y003787D02*
X008341Y003787D01*
X008142Y003589D02*
X010650Y003589D01*
X010650Y002596D02*
X009101Y002596D01*
X009299Y002398D02*
X009383Y002398D01*
X009131Y002001D02*
X009110Y002001D01*
X009110Y001802D02*
X009190Y001802D01*
X009190Y001604D02*
X009110Y001604D01*
X009110Y001405D02*
X009190Y001405D01*
X009238Y001207D02*
X009062Y001207D01*
X008872Y001008D02*
X009428Y001008D01*
X009872Y001008D02*
X010650Y001008D01*
X010650Y001207D02*
X010062Y001207D01*
X010110Y001405D02*
X010650Y001405D01*
X010650Y001604D02*
X010110Y001604D01*
X010110Y001802D02*
X010650Y001802D01*
X010650Y002001D02*
X010110Y002001D01*
X010071Y002199D02*
X010650Y002199D01*
X010650Y002398D02*
X009917Y002398D01*
X010650Y000810D02*
X006108Y000810D01*
X006105Y000611D02*
X010650Y000611D01*
X008428Y001008D02*
X007942Y001008D01*
X008105Y001207D02*
X008238Y001207D01*
X008190Y001405D02*
X008150Y001405D01*
X008150Y001604D02*
X008190Y001604D01*
X008190Y001802D02*
X008150Y001802D01*
X007650Y001604D02*
X007650Y001604D01*
X007650Y001405D02*
X007650Y001405D01*
X007650Y001207D02*
X007650Y001207D01*
X007650Y001008D02*
X007650Y001008D01*
X007358Y001008D02*
X006872Y001008D01*
X007062Y001207D02*
X007195Y001207D01*
X007150Y001405D02*
X007110Y001405D01*
X007110Y001604D02*
X007150Y001604D01*
X007150Y001802D02*
X007110Y001802D01*
X007110Y002001D02*
X007150Y002001D01*
X007184Y002199D02*
X007071Y002199D01*
X006238Y001207D02*
X006210Y001207D01*
X006012Y001008D02*
X006428Y001008D01*
X005316Y002398D02*
X005086Y002398D01*
X005150Y002596D02*
X005190Y002596D01*
X005190Y002795D02*
X005150Y002795D01*
X005088Y002993D02*
X005078Y002993D01*
X004890Y003192D02*
X004880Y003192D01*
X001994Y008353D02*
X001897Y008353D01*
X007650Y009345D02*
X007650Y009345D01*
X007650Y009544D02*
X007650Y009544D01*
X007650Y009714D02*
X007650Y009714D01*
X007650Y009742D02*
X007650Y009742D01*
X007650Y009941D02*
X007650Y009941D01*
D16*
X006650Y008264D03*
X005500Y007764D03*
X005250Y009664D03*
X004950Y009864D03*
X004150Y008114D03*
X003700Y007314D03*
X004650Y005664D03*
X006050Y005114D03*
X005000Y002114D03*
X005150Y000914D03*
X003750Y002114D03*
X002150Y007214D03*
X002100Y009264D03*
X005950Y013364D03*
X009300Y007864D03*
D17*
X008700Y007264D01*
X005650Y007264D01*
X005250Y007664D01*
X005250Y007714D01*
X004850Y008114D01*
X004150Y008114D01*
X003700Y007314D02*
X003700Y007164D01*
X005050Y005814D01*
X005050Y004964D01*
X007450Y002564D01*
X008000Y002564D01*
X008150Y002414D01*
X009000Y002414D01*
X009650Y001764D01*
X009650Y001714D01*
X008650Y001714D02*
X007950Y002414D01*
X007400Y002414D01*
X004900Y004914D01*
X004900Y005764D01*
X003450Y007214D01*
X002150Y007214D01*
X001650Y006714D02*
X002150Y006214D01*
X002150Y005264D01*
X002200Y005214D01*
X003150Y005214D01*
X005650Y002714D01*
X005000Y002114D02*
X003750Y002114D01*
X003200Y001714D02*
X002800Y002114D01*
X002050Y002114D01*
X001650Y001714D01*
X002150Y001214D02*
X001650Y000714D01*
X002150Y001214D02*
X004750Y001214D01*
X005250Y001714D01*
X005650Y001714D01*
X004650Y001714D02*
X003200Y001714D01*
X006650Y008264D02*
X005250Y009664D01*
X004950Y009864D02*
X004950Y010314D01*
X006200Y011564D01*
X006200Y014364D01*
X006600Y014764D01*
M02*
