G75*
%MOIN*%
%OFA0B0*%
%FSLAX24Y24*%
%IPPOS*%
%LPD*%
%AMOC8*
5,1,8,0,0,1.08239X$1,22.5*
%
%ADD10C,0.0030*%
%ADD11C,0.0060*%
%ADD12C,0.0050*%
%ADD13C,0.0040*%
%ADD14C,0.0020*%
D10*
X004174Y007109D02*
X004271Y007109D01*
X004319Y007158D01*
X004420Y007254D02*
X004614Y007254D01*
X004565Y007109D02*
X004565Y007400D01*
X004420Y007254D01*
X004319Y007351D02*
X004271Y007400D01*
X004174Y007400D01*
X004126Y007351D01*
X004126Y007158D01*
X004174Y007109D01*
X004295Y008479D02*
X004295Y008576D01*
X004295Y008528D02*
X004585Y008528D01*
X004585Y008576D02*
X004585Y008479D01*
X004537Y008676D02*
X004585Y008724D01*
X004585Y008821D01*
X004537Y008869D01*
X004585Y008970D02*
X004392Y009164D01*
X004343Y009164D01*
X004295Y009116D01*
X004295Y009019D01*
X004343Y008970D01*
X004343Y008869D02*
X004295Y008821D01*
X004295Y008724D01*
X004343Y008676D01*
X004537Y008676D01*
X004585Y008970D02*
X004585Y009164D01*
X004665Y011290D02*
X004665Y011435D01*
X004713Y011484D01*
X004810Y011484D01*
X004858Y011435D01*
X004858Y011290D01*
X004858Y011387D02*
X004955Y011484D01*
X004810Y011585D02*
X004810Y011778D01*
X004955Y011730D02*
X004665Y011730D01*
X004810Y011585D01*
X004955Y011290D02*
X004665Y011290D01*
X004185Y011329D02*
X003895Y011329D01*
X003895Y011474D01*
X003943Y011523D01*
X004040Y011523D01*
X004088Y011474D01*
X004088Y011329D01*
X004088Y011426D02*
X004185Y011523D01*
X004137Y011624D02*
X004185Y011672D01*
X004185Y011769D01*
X004137Y011818D01*
X004088Y011818D01*
X004040Y011769D01*
X004040Y011721D01*
X004040Y011769D02*
X003992Y011818D01*
X003943Y011818D01*
X003895Y011769D01*
X003895Y011672D01*
X003943Y011624D01*
X005495Y011672D02*
X005543Y011624D01*
X005495Y011672D02*
X005495Y011769D01*
X005543Y011818D01*
X005592Y011818D01*
X005785Y011624D01*
X005785Y011818D01*
X005785Y011523D02*
X005688Y011426D01*
X005688Y011474D02*
X005688Y011329D01*
X005785Y011329D02*
X005495Y011329D01*
X005495Y011474D01*
X005543Y011523D01*
X005640Y011523D01*
X005688Y011474D01*
X005342Y015406D02*
X005280Y015406D01*
X005342Y015406D02*
X005403Y015468D01*
X005403Y015776D01*
X005525Y015776D02*
X005587Y015715D01*
X005710Y015715D01*
X005772Y015653D01*
X005772Y015591D01*
X005710Y015529D01*
X005587Y015529D01*
X005525Y015591D01*
X005403Y015529D02*
X005218Y015529D01*
X005157Y015591D01*
X005157Y015776D01*
X005035Y015900D02*
X005035Y015529D01*
X004788Y015529D02*
X004788Y015900D01*
X004912Y015776D01*
X005035Y015900D01*
X005525Y015838D02*
X005525Y015776D01*
X005525Y015838D02*
X005587Y015900D01*
X005710Y015900D01*
X005772Y015838D01*
X005893Y015900D02*
X006140Y015529D01*
X006262Y015529D02*
X006262Y015900D01*
X006385Y015776D01*
X006508Y015900D01*
X006508Y015529D01*
X006630Y015591D02*
X006630Y015715D01*
X006692Y015776D01*
X006815Y015776D01*
X006877Y015715D01*
X006877Y015591D01*
X006815Y015529D01*
X006692Y015529D01*
X006630Y015591D01*
X006998Y015776D02*
X007122Y015776D01*
X007060Y015838D02*
X007060Y015591D01*
X007122Y015529D01*
X007244Y015529D02*
X007367Y015529D01*
X007305Y015529D02*
X007305Y015776D01*
X007244Y015776D01*
X007305Y015900D02*
X007305Y015961D01*
X007551Y015776D02*
X007489Y015715D01*
X007489Y015591D01*
X007551Y015529D01*
X007674Y015529D01*
X007736Y015591D01*
X007736Y015715D01*
X007674Y015776D01*
X007551Y015776D01*
X007858Y015776D02*
X007858Y015529D01*
X007858Y015776D02*
X008043Y015776D01*
X008104Y015715D01*
X008104Y015529D01*
X008594Y015529D02*
X008841Y015529D01*
X008963Y015529D02*
X009024Y015529D01*
X009024Y015591D01*
X008963Y015591D01*
X008963Y015529D01*
X009147Y015529D02*
X009394Y015529D01*
X009270Y015529D02*
X009270Y015900D01*
X009147Y015776D01*
X008718Y015900D02*
X008718Y015529D01*
X008594Y015776D02*
X008718Y015900D01*
X009438Y015180D02*
X009438Y015118D01*
X009562Y014995D01*
X009562Y014873D02*
X009500Y014873D01*
X009438Y014812D01*
X009438Y014688D01*
X009500Y014626D01*
X009623Y014626D01*
X009685Y014688D01*
X009685Y014812D01*
X009562Y014873D02*
X009562Y014626D01*
X009685Y014505D02*
X009685Y014320D01*
X009623Y014258D01*
X009500Y014258D01*
X009438Y014320D01*
X009438Y014505D01*
X009315Y014505D02*
X009685Y014505D01*
X009915Y014320D02*
X010285Y014320D01*
X010285Y014197D02*
X010285Y014444D01*
X010285Y014565D02*
X010285Y014627D01*
X010223Y014627D01*
X010223Y014565D01*
X010285Y014565D01*
X010285Y014749D02*
X010038Y014996D01*
X009976Y014996D01*
X009915Y014934D01*
X009915Y014811D01*
X009976Y014749D01*
X009685Y014995D02*
X009438Y014995D01*
X009915Y014320D02*
X010038Y014197D01*
X010223Y014074D02*
X010285Y014074D01*
X010285Y014013D01*
X010223Y014013D01*
X010223Y014074D01*
X010038Y013891D02*
X010285Y013768D01*
X010038Y013644D01*
X009685Y013583D02*
X009685Y013768D01*
X009438Y013768D01*
X009438Y013890D02*
X009438Y014075D01*
X009500Y014137D01*
X009685Y014137D01*
X009685Y013890D02*
X009438Y013890D01*
X009438Y013521D02*
X009623Y013521D01*
X009685Y013583D01*
X009685Y013032D02*
X009685Y012847D01*
X009623Y012785D01*
X009500Y012785D01*
X009438Y012847D01*
X009438Y013032D01*
X009315Y013032D02*
X009685Y013032D01*
X009915Y012908D02*
X010285Y012908D01*
X010285Y013154D01*
X010285Y012786D02*
X009915Y012786D01*
X010100Y012786D02*
X010100Y012539D01*
X010223Y012418D02*
X009976Y012418D01*
X009915Y012356D01*
X009915Y012233D01*
X009976Y012171D01*
X010223Y012171D01*
X010285Y012233D01*
X010285Y012356D01*
X010223Y012418D01*
X010285Y012539D02*
X009915Y012539D01*
X009685Y012478D02*
X009623Y012416D01*
X009500Y012416D01*
X009438Y012478D01*
X009438Y012602D01*
X009500Y012663D01*
X009562Y012663D01*
X009562Y012416D01*
X009623Y012295D02*
X009562Y012233D01*
X009562Y012110D01*
X009500Y012048D01*
X009438Y012110D01*
X009438Y012295D01*
X009623Y012295D02*
X009685Y012233D01*
X009685Y012048D01*
X009685Y011927D02*
X009500Y011927D01*
X009438Y011865D01*
X009438Y011680D01*
X009685Y011680D01*
X009562Y011558D02*
X009562Y011312D01*
X009623Y011312D02*
X009500Y011312D01*
X009438Y011373D01*
X009438Y011497D01*
X009500Y011558D01*
X009562Y011558D01*
X009685Y011497D02*
X009685Y011373D01*
X009623Y011312D01*
X009685Y011190D02*
X009685Y011005D01*
X009623Y010943D01*
X009500Y010943D01*
X009438Y011005D01*
X009438Y011190D01*
X009438Y010759D02*
X009685Y010759D01*
X009685Y010698D02*
X009685Y010821D01*
X009685Y010576D02*
X009685Y010329D01*
X009315Y010329D01*
X009438Y010698D02*
X009438Y010759D01*
X009315Y010759D02*
X009253Y010759D01*
X009915Y010698D02*
X010285Y010698D01*
X010285Y010945D01*
X010285Y011066D02*
X009915Y011066D01*
X009915Y011251D01*
X009976Y011313D01*
X010100Y011313D01*
X010162Y011251D01*
X010162Y011066D01*
X010162Y011189D02*
X010285Y011313D01*
X010285Y011434D02*
X009915Y011434D01*
X010285Y011681D01*
X009915Y011681D01*
X009915Y010945D02*
X009915Y010698D01*
X009976Y010576D02*
X009915Y010515D01*
X009915Y010391D01*
X009976Y010329D01*
X010223Y010329D01*
X010285Y010391D01*
X010285Y010515D01*
X010223Y010576D01*
X010100Y010698D02*
X010100Y010821D01*
X010035Y009418D02*
X010035Y009224D01*
X010035Y009321D02*
X009745Y009321D01*
X009842Y009224D01*
X009890Y009123D02*
X009793Y009123D01*
X009745Y009074D01*
X009745Y008929D01*
X010035Y008929D01*
X009938Y008929D02*
X009938Y009074D01*
X009890Y009123D01*
X009938Y009026D02*
X010035Y009123D01*
X010013Y007120D02*
X009965Y007071D01*
X009965Y006878D01*
X010013Y006829D01*
X010110Y006829D01*
X010158Y006878D01*
X010260Y006829D02*
X010453Y006829D01*
X010356Y006829D02*
X010356Y007120D01*
X010260Y007023D01*
X010158Y007071D02*
X010110Y007120D01*
X010013Y007120D01*
X009665Y006300D02*
X009569Y006300D01*
X009520Y006251D01*
X009419Y006251D02*
X009371Y006300D01*
X009274Y006300D01*
X009226Y006251D01*
X009226Y006058D01*
X009274Y006009D01*
X009371Y006009D01*
X009419Y006058D01*
X009520Y006058D02*
X009569Y006009D01*
X009665Y006009D01*
X009714Y006058D01*
X009714Y006106D01*
X009665Y006154D01*
X009617Y006154D01*
X009665Y006154D02*
X009714Y006203D01*
X009714Y006251D01*
X009665Y006300D01*
X009985Y005564D02*
X009985Y005370D01*
X009985Y005467D02*
X009695Y005467D01*
X009792Y005370D01*
X009743Y005269D02*
X009695Y005221D01*
X009695Y005124D01*
X009743Y005076D01*
X009937Y005076D01*
X009985Y005124D01*
X009985Y005221D01*
X009937Y005269D01*
X009985Y004976D02*
X009985Y004879D01*
X009985Y004928D02*
X009695Y004928D01*
X009695Y004976D02*
X009695Y004879D01*
X007214Y005409D02*
X007020Y005409D01*
X007117Y005409D02*
X007117Y005700D01*
X007020Y005603D01*
X006919Y005651D02*
X006919Y005458D01*
X006871Y005409D01*
X006774Y005409D01*
X006726Y005458D01*
X006726Y005651D01*
X006774Y005700D01*
X006871Y005700D01*
X006919Y005651D01*
X006822Y005506D02*
X006919Y005409D01*
X006963Y006040D02*
X007157Y006040D01*
X007205Y006088D01*
X007205Y006185D01*
X007157Y006234D01*
X007157Y006335D02*
X007205Y006383D01*
X007205Y006480D01*
X007157Y006528D01*
X007060Y006528D01*
X007012Y006480D01*
X007012Y006431D01*
X007060Y006335D01*
X006915Y006335D01*
X006915Y006528D01*
X006963Y006234D02*
X006915Y006185D01*
X006915Y006088D01*
X006963Y006040D01*
X005553Y005329D02*
X005360Y005329D01*
X005456Y005329D02*
X005456Y005620D01*
X005360Y005523D01*
X005258Y005620D02*
X005162Y005620D01*
X005210Y005620D02*
X005210Y005378D01*
X005162Y005329D01*
X005113Y005329D01*
X005065Y005378D01*
X006524Y003650D02*
X006476Y003601D01*
X006476Y003408D01*
X006524Y003359D01*
X006621Y003359D01*
X006669Y003408D01*
X006770Y003359D02*
X006964Y003553D01*
X006964Y003601D01*
X006915Y003650D01*
X006819Y003650D01*
X006770Y003601D01*
X006669Y003601D02*
X006621Y003650D01*
X006524Y003650D01*
X006770Y003359D02*
X006964Y003359D01*
X009685Y012478D02*
X009685Y012602D01*
X010285Y014749D02*
X010285Y014996D01*
X006140Y015900D02*
X005893Y015529D01*
D11*
X005850Y015264D02*
X006100Y015014D01*
X006350Y015264D01*
X006850Y015264D01*
X007100Y015014D01*
X007350Y015264D01*
X007850Y015264D01*
X008100Y015014D01*
X008100Y014514D01*
X007850Y014264D01*
X007350Y014264D01*
X007100Y014514D01*
X006850Y014264D01*
X006350Y014264D01*
X006100Y014514D01*
X005850Y014264D01*
X005350Y014264D01*
X005100Y014514D01*
X004850Y014264D01*
X004350Y014264D01*
X004100Y014514D01*
X004100Y015014D01*
X004350Y015264D01*
X004850Y015264D01*
X005100Y015014D01*
X005350Y015264D01*
X005850Y015264D01*
X003100Y010214D02*
X001200Y010214D01*
X001170Y010212D01*
X001140Y010207D01*
X001111Y010198D01*
X001084Y010185D01*
X001058Y010170D01*
X001034Y010151D01*
X001013Y010130D01*
X000994Y010106D01*
X000979Y010080D01*
X000966Y010053D01*
X000957Y010024D01*
X000952Y009994D01*
X000950Y009964D01*
X000950Y000464D01*
X000952Y000434D01*
X000957Y000404D01*
X000966Y000375D01*
X000979Y000348D01*
X000994Y000322D01*
X001013Y000298D01*
X001034Y000277D01*
X001058Y000258D01*
X001084Y000243D01*
X001111Y000230D01*
X001140Y000221D01*
X001170Y000216D01*
X001200Y000214D01*
X003100Y000214D01*
X003130Y000216D01*
X003160Y000221D01*
X003189Y000230D01*
X003216Y000243D01*
X003242Y000258D01*
X003266Y000277D01*
X003287Y000298D01*
X003306Y000322D01*
X003321Y000348D01*
X003334Y000375D01*
X003343Y000404D01*
X003348Y000434D01*
X003350Y000464D01*
X003350Y009964D01*
X003348Y009994D01*
X003343Y010024D01*
X003334Y010053D01*
X003321Y010080D01*
X003306Y010106D01*
X003287Y010130D01*
X003266Y010151D01*
X003242Y010170D01*
X003216Y010185D01*
X003189Y010198D01*
X003160Y010207D01*
X003130Y010212D01*
X003100Y010214D01*
X004400Y006714D02*
X006100Y006714D01*
X006117Y006712D01*
X006134Y006708D01*
X006150Y006701D01*
X006164Y006691D01*
X006177Y006678D01*
X006187Y006664D01*
X006194Y006648D01*
X006198Y006631D01*
X006200Y006614D01*
X006200Y006014D01*
X006198Y005997D01*
X006194Y005980D01*
X006187Y005964D01*
X006177Y005950D01*
X006164Y005937D01*
X006150Y005927D01*
X006134Y005920D01*
X006117Y005916D01*
X006100Y005914D01*
X004400Y005914D01*
X004383Y005916D01*
X004366Y005920D01*
X004350Y005927D01*
X004336Y005937D01*
X004323Y005950D01*
X004313Y005964D01*
X004306Y005980D01*
X004302Y005997D01*
X004300Y006014D01*
X004300Y006614D01*
X004302Y006631D01*
X004306Y006648D01*
X004313Y006664D01*
X004323Y006678D01*
X004336Y006691D01*
X004350Y006701D01*
X004366Y006708D01*
X004383Y006712D01*
X004400Y006714D01*
X005820Y005214D02*
X005820Y004914D01*
X006960Y004914D01*
X006960Y005214D01*
X005820Y005214D01*
X005900Y003214D02*
X006150Y002964D01*
X006150Y002464D01*
X005900Y002214D01*
X006150Y001964D01*
X006400Y002214D01*
X006900Y002214D01*
X007150Y001964D01*
X007400Y002214D01*
X007900Y002214D01*
X008150Y001964D01*
X008400Y002214D01*
X008900Y002214D01*
X009150Y001964D01*
X009400Y002214D01*
X009900Y002214D01*
X010150Y001964D01*
X010150Y001464D01*
X009900Y001214D01*
X009400Y001214D01*
X009150Y001464D01*
X008900Y001214D01*
X008400Y001214D01*
X008150Y001464D01*
X007900Y001214D01*
X007400Y001214D01*
X007150Y001464D01*
X006900Y001214D01*
X006400Y001214D01*
X006150Y001464D01*
X006150Y001964D01*
X006150Y001464D01*
X005900Y001214D01*
X006150Y000964D01*
X006150Y000464D01*
X005900Y000214D01*
X004400Y000214D01*
X004150Y000464D01*
X004150Y000964D01*
X004400Y001214D01*
X004150Y001464D01*
X004150Y001964D01*
X004400Y002214D01*
X004150Y002464D01*
X004150Y002964D01*
X004400Y003214D01*
X005900Y003214D01*
D12*
X000325Y000394D02*
X000325Y000244D01*
X000400Y000169D01*
X000325Y000394D02*
X000400Y000469D01*
X000475Y000469D01*
X000775Y000169D01*
X000775Y000469D01*
X000700Y000629D02*
X000400Y000929D01*
X000700Y000929D01*
X000775Y000854D01*
X000775Y000704D01*
X000700Y000629D01*
X000400Y000629D01*
X000325Y000704D01*
X000325Y000854D01*
X000400Y000929D01*
X004500Y003489D02*
X004425Y003640D01*
X004500Y003489D02*
X004650Y003339D01*
X004650Y003565D01*
X004725Y003640D01*
X004800Y003640D01*
X004875Y003565D01*
X004875Y003414D01*
X004800Y003339D01*
X004650Y003339D01*
X005840Y001940D02*
X005615Y001715D01*
X005915Y001715D01*
X005840Y001940D02*
X005840Y001489D01*
X006325Y000639D02*
X006775Y000639D01*
X006775Y000489D02*
X006775Y000790D01*
X006475Y000489D02*
X006325Y000639D01*
X010165Y001489D02*
X010465Y001489D01*
X010315Y001489D02*
X010315Y001940D01*
X010165Y001790D01*
X006270Y007114D02*
X006480Y007324D01*
X006270Y007114D02*
X006060Y007324D01*
X006270Y007534D01*
X005750Y008264D02*
X004750Y008264D01*
X004750Y009264D01*
X005750Y009264D01*
X005750Y008264D01*
X004750Y008514D02*
X004752Y008545D01*
X004758Y008576D01*
X004768Y008606D01*
X004781Y008634D01*
X004798Y008661D01*
X004818Y008685D01*
X004841Y008707D01*
X004866Y008725D01*
X004894Y008740D01*
X004923Y008752D01*
X004953Y008760D01*
X004984Y008764D01*
X005016Y008764D01*
X005047Y008760D01*
X005077Y008752D01*
X005106Y008740D01*
X005134Y008725D01*
X005159Y008707D01*
X005182Y008685D01*
X005202Y008661D01*
X005219Y008634D01*
X005232Y008606D01*
X005242Y008576D01*
X005248Y008545D01*
X005250Y008514D01*
X005248Y008483D01*
X005242Y008452D01*
X005232Y008422D01*
X005219Y008394D01*
X005202Y008367D01*
X005182Y008343D01*
X005159Y008321D01*
X005134Y008303D01*
X005106Y008288D01*
X005077Y008276D01*
X005047Y008268D01*
X005016Y008264D01*
X004984Y008264D01*
X004953Y008268D01*
X004923Y008276D01*
X004894Y008288D01*
X004866Y008303D01*
X004841Y008321D01*
X004818Y008343D01*
X004798Y008367D01*
X004781Y008394D01*
X004768Y008422D01*
X004758Y008452D01*
X004752Y008483D01*
X004750Y008514D01*
X003975Y009429D02*
X003975Y009729D01*
X003975Y009579D02*
X003525Y009579D01*
X003675Y009429D01*
X003790Y014539D02*
X003790Y014990D01*
X003565Y014765D01*
X003865Y014765D01*
X005850Y008714D02*
X005852Y008798D01*
X005858Y008883D01*
X005868Y008966D01*
X005882Y009050D01*
X005899Y009132D01*
X005921Y009214D01*
X005946Y009294D01*
X005975Y009373D01*
X006008Y009451D01*
X006044Y009527D01*
X006084Y009602D01*
X006128Y009674D01*
X006174Y009745D01*
X006224Y009813D01*
X006277Y009878D01*
X006333Y009941D01*
X006392Y010002D01*
X006454Y010059D01*
X006518Y010114D01*
X006585Y010165D01*
X006654Y010214D01*
X006726Y010259D01*
X006799Y010300D01*
X006874Y010338D01*
X006951Y010373D01*
X007030Y010404D01*
X007110Y010431D01*
X007191Y010454D01*
X007273Y010474D01*
X007356Y010490D01*
X007439Y010502D01*
X007524Y010510D01*
X007608Y010514D01*
X007692Y010514D01*
X007776Y010510D01*
X007861Y010502D01*
X007944Y010490D01*
X008027Y010474D01*
X008109Y010454D01*
X008190Y010431D01*
X008270Y010404D01*
X008349Y010373D01*
X008426Y010338D01*
X008501Y010300D01*
X008574Y010259D01*
X008646Y010214D01*
X008715Y010165D01*
X008782Y010114D01*
X008846Y010059D01*
X008908Y010002D01*
X008967Y009941D01*
X009023Y009878D01*
X009076Y009813D01*
X009126Y009745D01*
X009172Y009674D01*
X009216Y009602D01*
X009256Y009527D01*
X009292Y009451D01*
X009325Y009373D01*
X009354Y009294D01*
X009379Y009214D01*
X009401Y009132D01*
X009418Y009050D01*
X009432Y008966D01*
X009442Y008883D01*
X009448Y008798D01*
X009450Y008714D01*
X009448Y008630D01*
X009442Y008545D01*
X009432Y008462D01*
X009418Y008378D01*
X009401Y008296D01*
X009379Y008214D01*
X009354Y008134D01*
X009325Y008055D01*
X009292Y007977D01*
X009256Y007901D01*
X009216Y007826D01*
X009172Y007754D01*
X009126Y007683D01*
X009076Y007615D01*
X009023Y007550D01*
X008967Y007487D01*
X008908Y007426D01*
X008846Y007369D01*
X008782Y007314D01*
X008715Y007263D01*
X008646Y007214D01*
X008574Y007169D01*
X008501Y007128D01*
X008426Y007090D01*
X008349Y007055D01*
X008270Y007024D01*
X008190Y006997D01*
X008109Y006974D01*
X008027Y006954D01*
X007944Y006938D01*
X007861Y006926D01*
X007776Y006918D01*
X007692Y006914D01*
X007608Y006914D01*
X007524Y006918D01*
X007439Y006926D01*
X007356Y006938D01*
X007273Y006954D01*
X007191Y006974D01*
X007110Y006997D01*
X007030Y007024D01*
X006951Y007055D01*
X006874Y007090D01*
X006799Y007128D01*
X006726Y007169D01*
X006654Y007214D01*
X006585Y007263D01*
X006518Y007314D01*
X006454Y007369D01*
X006392Y007426D01*
X006333Y007487D01*
X006277Y007550D01*
X006224Y007615D01*
X006174Y007683D01*
X006128Y007754D01*
X006084Y007826D01*
X006044Y007901D01*
X006008Y007977D01*
X005975Y008055D01*
X005946Y008134D01*
X005921Y008214D01*
X005899Y008296D01*
X005882Y008378D01*
X005868Y008462D01*
X005858Y008545D01*
X005852Y008630D01*
X005850Y008714D01*
X008115Y014539D02*
X008415Y014539D01*
X008265Y014539D02*
X008265Y014990D01*
X008115Y014840D01*
D13*
X007192Y013935D02*
X007132Y013995D01*
X007012Y013995D01*
X006952Y013935D01*
X006952Y013694D01*
X007012Y013634D01*
X007132Y013634D01*
X007192Y013694D01*
X006824Y013634D02*
X006583Y013634D01*
X006824Y013875D01*
X006824Y013935D01*
X006764Y013995D01*
X006643Y013995D01*
X006583Y013935D01*
X006458Y013995D02*
X006338Y013995D01*
X006398Y013995D02*
X006398Y013634D01*
X006338Y013634D02*
X006458Y013634D01*
X006670Y011095D02*
X006790Y011095D01*
X006730Y011095D02*
X006730Y010734D01*
X006670Y010734D02*
X006790Y010734D01*
X006916Y010794D02*
X006976Y010734D01*
X007096Y010734D01*
X007156Y010794D01*
X007284Y010794D02*
X007344Y010734D01*
X007464Y010734D01*
X007524Y010794D01*
X007524Y010854D01*
X007464Y010915D01*
X007404Y010915D01*
X007464Y010915D02*
X007524Y010975D01*
X007524Y011035D01*
X007464Y011095D01*
X007344Y011095D01*
X007284Y011035D01*
X007156Y011035D02*
X007096Y011095D01*
X006976Y011095D01*
X006916Y011035D01*
X006916Y010794D01*
X006164Y003745D02*
X005984Y003745D01*
X005984Y003384D01*
X005984Y003504D02*
X006164Y003504D01*
X006224Y003565D01*
X006224Y003685D01*
X006164Y003745D01*
X005856Y003685D02*
X005796Y003745D01*
X005676Y003745D01*
X005616Y003685D01*
X005616Y003625D01*
X005676Y003565D01*
X005796Y003565D01*
X005856Y003504D01*
X005856Y003444D01*
X005796Y003384D01*
X005676Y003384D01*
X005616Y003444D01*
X005490Y003384D02*
X005370Y003384D01*
X005430Y003384D02*
X005430Y003745D01*
X005370Y003745D02*
X005490Y003745D01*
X003880Y001556D02*
X003880Y001316D01*
X003880Y001436D02*
X003520Y001436D01*
X003640Y001316D01*
X003520Y001188D02*
X003880Y000948D01*
X003880Y001188D02*
X003520Y000948D01*
X007797Y002494D02*
X007857Y002434D01*
X007977Y002434D01*
X008037Y002494D01*
X008037Y002795D01*
X008165Y002675D02*
X008285Y002795D01*
X008405Y002675D01*
X008405Y002434D01*
X008533Y002434D02*
X008533Y002795D01*
X008714Y002795D01*
X008774Y002735D01*
X008774Y002615D01*
X008714Y002554D01*
X008533Y002554D01*
X008653Y002554D02*
X008774Y002434D01*
X009022Y002434D02*
X009022Y002795D01*
X008902Y002795D02*
X009142Y002795D01*
X008405Y002615D02*
X008165Y002615D01*
X008165Y002675D02*
X008165Y002434D01*
X007797Y002494D02*
X007797Y002795D01*
D14*
X006130Y008714D02*
X006132Y008792D01*
X006138Y008869D01*
X006148Y008946D01*
X006162Y009022D01*
X006179Y009098D01*
X006201Y009173D01*
X006226Y009246D01*
X006255Y009318D01*
X006288Y009388D01*
X006324Y009457D01*
X006364Y009524D01*
X006407Y009588D01*
X006453Y009651D01*
X006502Y009711D01*
X006555Y009768D01*
X006610Y009823D01*
X006668Y009874D01*
X006729Y009923D01*
X006791Y009968D01*
X006857Y010011D01*
X006924Y010049D01*
X006993Y010085D01*
X007064Y010116D01*
X007136Y010145D01*
X007210Y010169D01*
X007285Y010189D01*
X007361Y010206D01*
X007437Y010219D01*
X007514Y010228D01*
X007592Y010233D01*
X007669Y010234D01*
X007747Y010231D01*
X007824Y010224D01*
X007901Y010213D01*
X007977Y010198D01*
X008053Y010180D01*
X008127Y010157D01*
X008200Y010131D01*
X008272Y010101D01*
X008342Y010067D01*
X008410Y010030D01*
X008476Y009990D01*
X008540Y009946D01*
X008602Y009899D01*
X008661Y009849D01*
X008718Y009796D01*
X008772Y009740D01*
X008823Y009681D01*
X008871Y009620D01*
X008915Y009556D01*
X008957Y009491D01*
X008995Y009423D01*
X009029Y009353D01*
X009060Y009282D01*
X009087Y009209D01*
X009110Y009135D01*
X009130Y009060D01*
X009146Y008984D01*
X009158Y008908D01*
X009166Y008830D01*
X009170Y008753D01*
X009170Y008675D01*
X009166Y008598D01*
X009158Y008520D01*
X009146Y008444D01*
X009130Y008368D01*
X009110Y008293D01*
X009087Y008219D01*
X009060Y008146D01*
X009029Y008075D01*
X008995Y008005D01*
X008957Y007937D01*
X008915Y007872D01*
X008871Y007808D01*
X008823Y007747D01*
X008772Y007688D01*
X008718Y007632D01*
X008661Y007579D01*
X008602Y007529D01*
X008540Y007482D01*
X008476Y007438D01*
X008410Y007398D01*
X008342Y007361D01*
X008272Y007327D01*
X008200Y007297D01*
X008127Y007271D01*
X008053Y007248D01*
X007977Y007230D01*
X007901Y007215D01*
X007824Y007204D01*
X007747Y007197D01*
X007669Y007194D01*
X007592Y007195D01*
X007514Y007200D01*
X007437Y007209D01*
X007361Y007222D01*
X007285Y007239D01*
X007210Y007259D01*
X007136Y007283D01*
X007064Y007312D01*
X006993Y007343D01*
X006924Y007379D01*
X006857Y007417D01*
X006791Y007460D01*
X006729Y007505D01*
X006668Y007554D01*
X006610Y007605D01*
X006555Y007660D01*
X006502Y007717D01*
X006453Y007777D01*
X006407Y007840D01*
X006364Y007904D01*
X006324Y007971D01*
X006288Y008040D01*
X006255Y008110D01*
X006226Y008182D01*
X006201Y008255D01*
X006179Y008330D01*
X006162Y008406D01*
X006148Y008482D01*
X006138Y008559D01*
X006132Y008636D01*
X006130Y008714D01*
M02*
