%
M48
M72
T01C0.0130
T02C0.0320
T03C0.0360
T04C0.0400
T05C0.1181
%
T01
X3750Y2114
X5000Y2114
X5150Y914
X6050Y5114
X4650Y5664
X3700Y7314
X4150Y8114
X5250Y9664
X4950Y9864
X5500Y7764
X6650Y8264
X9300Y7864
X5950Y13364
X2100Y9264
X2150Y7214
T02
X7650Y7714
X8650Y8714
X7650Y9714
T03
X1650Y714
X1650Y1714
X1650Y2714
X1650Y3714
X1650Y4714
X1650Y5714
X1650Y6714
X1650Y7714
X1650Y8714
X1650Y9714
X2650Y9714
X2650Y8714
X2650Y7714
X2650Y6714
X2650Y5714
X2650Y4714
X2650Y3714
X2650Y2714
X2650Y1714
X2650Y714
T04
X4650Y714
X4650Y1714
X4650Y2714
X5650Y2714
X5650Y1714
X5650Y714
X6650Y1714
X7650Y1714
X8650Y1714
X9650Y1714
X7600Y14764
X6600Y14764
X5600Y14764
X4600Y14764
T05
X7650Y13144
X7650Y4285
M30
